<svg id="wave" style="transform:rotate(180deg); transition: 0.3s" viewBox="0 0 1440 490" version="1.1" xmlns="http://www.w3.org/2000/svg"><defs><linearGradient id="sw-gradient-0" x1="0" x2="0" y1="1" y2="0"><stop stop-color="rgba(0, 128, 102, 1)" offset="0%"></stop><stop stop-color="rgba(121.478, 201.723, 185.423, 1)" offset="100%"></stop></linearGradient></defs><path style="transform:translate(0, 0px); opacity:1" fill="url(#sw-gradient-0)" d="M0,294L34.3,285.8C68.6,278,137,261,206,285.8C274.3,310,343,376,411,367.5C480,359,549,278,617,269.5C685.7,261,754,327,823,343C891.4,359,960,327,1029,269.5C1097.1,212,1166,131,1234,89.8C1302.9,49,1371,49,1440,40.8C1508.6,33,1577,16,1646,8.2C1714.3,0,1783,0,1851,57.2C1920,114,1989,229,2057,302.2C2125.7,376,2194,408,2263,383.8C2331.4,359,2400,278,2469,253.2C2537.1,229,2606,261,2674,285.8C2742.9,310,2811,327,2880,334.8C2948.6,343,3017,343,3086,294C3154.3,245,3223,147,3291,114.3C3360,82,3429,114,3497,106.2C3565.7,98,3634,49,3703,24.5C3771.4,0,3840,0,3909,8.2C3977.1,16,4046,33,4114,106.2C4182.9,180,4251,310,4320,326.7C4388.6,343,4457,245,4526,204.2C4594.3,163,4663,180,4731,228.7C4800,278,4869,359,4903,400.2L4937.1,441L4937.1,490L4902.9,490C4868.6,490,4800,490,4731,490C4662.9,490,4594,490,4526,490C4457.1,490,4389,490,4320,490C4251.4,490,4183,490,4114,490C4045.7,490,3977,490,3909,490C3840,490,3771,490,3703,490C3634.3,490,3566,490,3497,490C3428.6,490,3360,490,3291,490C3222.9,490,3154,490,3086,490C3017.1,490,2949,490,2880,490C2811.4,490,2743,490,2674,490C2605.7,490,2537,490,2469,490C2400,490,2331,490,2263,490C2194.3,490,2126,490,2057,490C1988.6,490,1920,490,1851,490C1782.9,490,1714,490,1646,490C1577.1,490,1509,490,1440,490C1371.4,490,1303,490,1234,490C1165.7,490,1097,490,1029,490C960,490,891,490,823,490C754.3,490,686,490,617,490C548.6,490,480,490,411,490C342.9,490,274,490,206,490C137.1,490,69,490,34,490L0,490Z"></path><defs><linearGradient id="sw-gradient-1" x1="0" x2="0" y1="1" y2="0"><stop stop-color="rgba(0, 128, 102, 1)" offset="0%"></stop><stop stop-color="rgba(31.563, 226.768, 153.359, 1)" offset="100%"></stop></linearGradient></defs><path style="transform:translate(0, 50px); opacity:0.9" fill="url(#sw-gradient-1)" d="M0,98L34.3,98C68.6,98,137,98,206,130.7C274.3,163,343,229,411,253.2C480,278,549,261,617,269.5C685.7,278,754,310,823,269.5C891.4,229,960,114,1029,81.7C1097.1,49,1166,98,1234,163.3C1302.9,229,1371,310,1440,351.2C1508.6,392,1577,392,1646,351.2C1714.3,310,1783,229,1851,220.5C1920,212,1989,278,2057,269.5C2125.7,261,2194,180,2263,138.8C2331.4,98,2400,98,2469,106.2C2537.1,114,2606,131,2674,138.8C2742.9,147,2811,147,2880,196C2948.6,245,3017,343,3086,383.8C3154.3,425,3223,408,3291,400.2C3360,392,3429,392,3497,343C3565.7,294,3634,196,3703,204.2C3771.4,212,3840,327,3909,351.2C3977.1,376,4046,310,4114,294C4182.9,278,4251,310,4320,310.3C4388.6,310,4457,278,4526,245C4594.3,212,4663,180,4731,155.2C4800,131,4869,114,4903,106.2L4937.1,98L4937.1,490L4902.9,490C4868.6,490,4800,490,4731,490C4662.9,490,4594,490,4526,490C4457.1,490,4389,490,4320,490C4251.4,490,4183,490,4114,490C4045.7,490,3977,490,3909,490C3840,490,3771,490,3703,490C3634.3,490,3566,490,3497,490C3428.6,490,3360,490,3291,490C3222.9,490,3154,490,3086,490C3017.1,490,2949,490,2880,490C2811.4,490,2743,490,2674,490C2605.7,490,2537,490,2469,490C2400,490,2331,490,2263,490C2194.3,490,2126,490,2057,490C1988.6,490,1920,490,1851,490C1782.9,490,1714,490,1646,490C1577.1,490,1509,490,1440,490C1371.4,490,1303,490,1234,490C1165.7,490,1097,490,1029,490C960,490,891,490,823,490C754.3,490,686,490,617,490C548.6,490,480,490,411,490C342.9,490,274,490,206,490C137.1,490,69,490,34,490L0,490Z"></path><defs><linearGradient id="sw-gradient-2" x1="0" x2="0" y1="1" y2="0"><stop stop-color="rgba(0, 128, 102, 1)" offset="0%"></stop><stop stop-color="rgba(163.018, 163.018, 163.018, 1)" offset="100%"></stop></linearGradient></defs><path style="transform:translate(0, 100px); opacity:0.8" fill="url(#sw-gradient-2)" d="M0,98L34.3,147C68.6,196,137,294,206,277.7C274.3,261,343,131,411,81.7C480,33,549,65,617,73.5C685.7,82,754,65,823,114.3C891.4,163,960,278,1029,294C1097.1,310,1166,229,1234,171.5C1302.9,114,1371,82,1440,89.8C1508.6,98,1577,147,1646,155.2C1714.3,163,1783,131,1851,163.3C1920,196,1989,294,2057,302.2C2125.7,310,2194,229,2263,204.2C2331.4,180,2400,212,2469,236.8C2537.1,261,2606,278,2674,294C2742.9,310,2811,327,2880,277.7C2948.6,229,3017,114,3086,122.5C3154.3,131,3223,261,3291,294C3360,327,3429,261,3497,269.5C3565.7,278,3634,359,3703,383.8C3771.4,408,3840,376,3909,351.2C3977.1,327,4046,310,4114,253.2C4182.9,196,4251,98,4320,114.3C4388.6,131,4457,261,4526,302.2C4594.3,343,4663,294,4731,285.8C4800,278,4869,310,4903,326.7L4937.1,343L4937.1,490L4902.9,490C4868.6,490,4800,490,4731,490C4662.9,490,4594,490,4526,490C4457.1,490,4389,490,4320,490C4251.4,490,4183,490,4114,490C4045.7,490,3977,490,3909,490C3840,490,3771,490,3703,490C3634.3,490,3566,490,3497,490C3428.6,490,3360,490,3291,490C3222.9,490,3154,490,3086,490C3017.1,490,2949,490,2880,490C2811.4,490,2743,490,2674,490C2605.7,490,2537,490,2469,490C2400,490,2331,490,2263,490C2194.3,490,2126,490,2057,490C1988.6,490,1920,490,1851,490C1782.9,490,1714,490,1646,490C1577.1,490,1509,490,1440,490C1371.4,490,1303,490,1234,490C1165.7,490,1097,490,1029,490C960,490,891,490,823,490C754.3,490,686,490,617,490C548.6,490,480,490,411,490C342.9,490,274,490,206,490C137.1,490,69,490,34,490L0,490Z"></path><defs><linearGradient id="sw-gradient-3" x1="0" x2="0" y1="1" y2="0"><stop stop-color="rgba(0, 128, 102, 1)" offset="0%"></stop><stop stop-color="rgba(98.847, 255, 223.281, 1)" offset="100%"></stop></linearGradient></defs><path style="transform:translate(0, 150px); opacity:0.7" fill="url(#sw-gradient-3)" d="M0,441L34.3,367.5C68.6,294,137,147,206,147C274.3,147,343,294,411,294C480,294,549,147,617,138.8C685.7,131,754,261,823,277.7C891.4,294,960,196,1029,196C1097.1,196,1166,294,1234,326.7C1302.9,359,1371,327,1440,285.8C1508.6,245,1577,196,1646,196C1714.3,196,1783,245,1851,261.3C1920,278,1989,261,2057,269.5C2125.7,278,2194,310,2263,310.3C2331.4,310,2400,278,2469,236.8C2537.1,196,2606,147,2674,106.2C2742.9,65,2811,33,2880,89.8C2948.6,147,3017,294,3086,326.7C3154.3,359,3223,278,3291,261.3C3360,245,3429,294,3497,285.8C3565.7,278,3634,212,3703,212.3C3771.4,212,3840,278,3909,253.2C3977.1,229,4046,114,4114,130.7C4182.9,147,4251,294,4320,302.2C4388.6,310,4457,180,4526,138.8C4594.3,98,4663,147,4731,171.5C4800,196,4869,196,4903,196L4937.1,196L4937.1,490L4902.9,490C4868.6,490,4800,490,4731,490C4662.9,490,4594,490,4526,490C4457.1,490,4389,490,4320,490C4251.4,490,4183,490,4114,490C4045.7,490,3977,490,3909,490C3840,490,3771,490,3703,490C3634.3,490,3566,490,3497,490C3428.6,490,3360,490,3291,490C3222.9,490,3154,490,3086,490C3017.1,490,2949,490,2880,490C2811.4,490,2743,490,2674,490C2605.7,490,2537,490,2469,490C2400,490,2331,490,2263,490C2194.3,490,2126,490,2057,490C1988.6,490,1920,490,1851,490C1782.9,490,1714,490,1646,490C1577.1,490,1509,490,1440,490C1371.4,490,1303,490,1234,490C1165.7,490,1097,490,1029,490C960,490,891,490,823,490C754.3,490,686,490,617,490C548.6,490,480,490,411,490C342.9,490,274,490,206,490C137.1,490,69,490,34,490L0,490Z"></path></svg>